<svg width="2048" height="2048" viewBox="0 0 2048 2048" fill="none" xmlns="http://www.w3.org/2000/svg">
<path d="M941.768 0H942.586C948.95 2.31435 946.96 4.26219 952.417 5.42764C954.124 3.75364 954.358 3.54073 955.689 1.57245C956.582 2.94931 957.01 3.66306 957.838 5.14365L958.658 5.42512L959.367 2.47708C963.047 3.00876 962.581 6.68551 972.543 8.03173C976.172 8.52215 980.483 12.4002 983.546 14.3646C995.118 21.786 1004.48 25.6382 1012.73 37.478C1022.16 51.0237 1033.07 80.7838 1035.1 97.1892C1036.57 109.094 1034.83 135.037 1039.87 144.161C1044.88 153.24 1038.66 174.103 1043.23 184.434C1047.1 193.157 1045.31 223.182 1045.84 234.311L1055.58 463.284C1056.93 500.611 1055.82 538.019 1059 574.634C1055.49 581.653 1054.66 580.238 1058.98 586.711C1058.23 602.022 1060.96 625.707 1061.55 641.807C1061.94 652.532 1061.71 710.413 1064.8 716.584C1066.33 714.783 1066.72 714.707 1069 714.108C1074.83 704.628 1071.83 702.927 1081.21 699.624C1085.99 693.756 1086.56 687.801 1090.91 681.584L1094.12 682.271C1096.65 678.511 1095.75 675.862 1096.81 672.002C1097.59 669.185 1104.91 668.411 1105.02 663.822C1105.3 651.305 1115.84 645.823 1123.64 635.234L1126.52 636.272C1129.94 631.146 1126.53 627.123 1130.37 622.215C1151.3 595.426 1170.52 567.312 1191.56 540.653C1201.31 528.308 1212.46 517.159 1221.75 504.4C1227.64 496.862 1232.12 498.804 1235.52 486.841C1236.11 484.747 1252.48 475.07 1255.5 470.769C1254.97 469.165 1254.89 468.883 1254.9 467.132C1256.57 466.592 1257.98 466.183 1259.68 465.735C1267.74 452.688 1265.68 457.404 1278.7 448.865C1279.81 448.135 1283.95 438.061 1285.98 436.323C1291.57 431.517 1297.79 427.095 1303.48 422.48C1310.37 416.893 1316.66 409.981 1322.68 403.48L1324.72 403.136C1325.93 404.717 1327.19 406.197 1328.58 407.623C1329.64 402.175 1324.92 405.901 1326.97 402.956C1329.41 399.456 1332.84 398.968 1334.87 394.712L1336.59 394.43C1337.47 397.107 1336.63 396.097 1338.69 397.807C1343.09 397.002 1343.81 396.129 1345.62 392.081L1343.91 389.65C1345.9 387.229 1349.63 384.015 1352.08 381.906C1362.64 384.016 1358.16 374.982 1368.08 372.827C1371.9 371.997 1376.14 370.974 1377.58 366.791C1377.74 366.312 1384.42 364.55 1385.44 364.293C1385.67 366.779 1385.48 366.841 1386.78 368.907C1392.8 367.174 1391.69 360.677 1391.19 356.201C1396.44 356.751 1398.12 357.183 1401.67 353.017L1400.39 350.682C1402.84 347.668 1412.73 341.551 1416.46 339.1C1423.37 340.672 1424.82 340.261 1429.95 335.418L1429.09 333.52C1430.62 330.813 1437.54 327.573 1440.73 327.331C1441.7 329.611 1441.45 328.778 1441.65 331.288L1442.95 331.5C1452.4 322.271 1456.82 332.395 1466.44 320.804L1468.17 320.698C1470.89 323.787 1469.3 323.086 1472.67 323.678C1474.4 319.567 1473.01 320.711 1476.14 319.185L1479.88 320.011C1480.93 317.998 1480.81 318.285 1481.57 316.03C1489.97 314.231 1494.07 321.565 1497.87 311.123C1502.44 309.826 1514.22 312.62 1519.92 311.517C1520.5 311.405 1522.11 308.579 1522.61 307.728L1524.33 307.215C1526.52 308.687 1526.81 308.918 1528.68 310.774C1533.72 309.686 1533.53 307.62 1536.67 308.595C1541.12 313.777 1540.43 313.631 1547.48 311.313C1556.07 313.435 1548.44 320.06 1562.86 313.11C1565.18 314.437 1565.38 315.632 1566.59 318.098C1567.61 318.009 1573.57 317.475 1574.17 317.718C1610.78 332.514 1643.97 363.12 1664.95 396.223C1677.19 415.544 1686.74 437.374 1693.78 458.794C1701.85 483.326 1710.26 506.716 1711.6 532.87C1716.15 588.415 1720.44 645.339 1707.13 700.053C1705.25 707.776 1703.46 707.962 1707.36 715.532C1706.96 723.911 1701.13 731.553 1702.23 734.35L1703.93 735.167C1697.43 760.85 1697.29 780.64 1686.79 805.707C1688.26 807.522 1688.26 807.339 1688.89 809.646C1679.77 833.329 1675.61 862.005 1666.07 888.026C1654.29 920.484 1638.12 951.175 1618.01 979.245C1614.69 983.921 1610.11 987.751 1606.97 992.265C1602.58 998.575 1599.26 1005.44 1594.22 1011.33C1581.49 1026.24 1566.35 1040.06 1554.5 1055.56C1550.92 1060.24 1545.64 1062.03 1541.85 1066.19C1533.33 1075.53 1525.88 1085.76 1516.88 1094.8C1502.66 1109.1 1485.82 1122.27 1469.81 1134.59C1460.84 1141.5 1439.56 1150.18 1433.88 1158.12C1431.27 1161.75 1392.65 1182.81 1383.33 1190.94L1381.32 1190.59C1378.94 1190.19 1378.68 1190.14 1376.27 1190.73C1375.99 1192.38 1376.04 1191.46 1376.26 1193.47C1364.02 1204.98 1296.31 1234.51 1294.34 1238.06C1302.51 1245.12 1436 1240.45 1454.4 1238.28C1457.59 1237.91 1461.32 1242.5 1465.21 1242.04L1462.65 1238.79C1464.51 1237.59 1533.83 1237.81 1542.12 1236.6C1549.18 1235.58 1554.38 1234.98 1560.59 1238.81L1562.22 1238.11C1569.11 1235.32 1568.17 1234.49 1576.63 1234.97C1600.33 1236.3 1623.87 1231.75 1647.36 1230.9C1648.6 1231.83 1649.84 1232.75 1651.09 1233.65C1657.43 1232.5 1667.95 1229.97 1674.14 1230.29C1683.41 1230.75 1690.24 1232.19 1699.97 1231.97C1729.91 1231.27 1759.85 1241.66 1783.01 1257.39L1784.8 1258.61L1782.6 1263.01C1788.66 1269.75 1792.69 1263.38 1794.46 1275.23L1796.58 1277.25C1798.92 1276.52 1797.92 1277.14 1799.61 1275.43C1810.17 1290.44 1818.69 1316.61 1817.29 1335.04C1816.82 1337.08 1817.61 1341.32 1818.72 1343.19C1822.77 1349.99 1817.32 1355.96 1817.5 1361.49C1819.13 1413.57 1779.66 1447.12 1731.49 1461.72C1643.65 1488.36 1542.14 1482.71 1451.62 1472.72C1415.41 1470.54 1380.04 1460.44 1344.74 1452.73C1341.61 1452.05 1332.44 1447.45 1330.37 1447.4C1315.79 1447.05 1303.41 1440.96 1289.4 1438.12C1282.69 1436.76 1281.07 1431.49 1273.57 1432.52C1265.88 1432.56 1262.08 1432.17 1256.98 1426.65C1256.04 1425.63 1255.12 1424.59 1254.22 1423.52C1250 1423.31 1246.02 1423.76 1241.97 1422.99C1237.61 1422.16 1232.79 1412.49 1229.11 1414.62C1225.99 1416.09 1224.07 1417.53 1220.55 1416.26C1206.62 1411.24 1192.95 1405.5 1179.17 1400.12C1166.55 1395.19 1153.2 1391.88 1141.24 1385.21C1130.06 1378.96 1119.04 1372.87 1107.41 1367.52C1102.37 1365.2 1097.72 1359.04 1093.03 1357.41C1092.11 1359.54 1092.52 1358.53 1091.8 1360.45C1088.57 1357.5 1086.93 1353.98 1084.47 1353.74C1083.86 1371.63 1085.95 1389.37 1084.17 1407.41C1083.82 1410.91 1087.25 1417.97 1087.51 1421.74C1088.49 1436.29 1088.22 1451.46 1086.85 1465.98C1086.3 1471.75 1089.22 1478.6 1089.12 1484.49C1085.96 1502.13 1088.9 1518.7 1089.21 1536.55C1089.7 1564.36 1091.92 1592.75 1093.6 1620.56C1094.36 1633.14 1092.81 1666.41 1095.02 1676.79L1096.21 1677.68C1097.6 1678.73 1098.43 1679.44 1099.71 1680.58L1099.76 1682.49C1100.07 1692.71 1114.58 1696.39 1121.48 1702.87C1125.16 1706.32 1129.61 1709.73 1133.45 1713.04C1146.28 1724.54 1215.94 1774.08 1218.95 1785.12C1226.88 1791.47 1244.23 1807.07 1246.75 1817.69C1246.87 1818.21 1246.34 1823.43 1246.23 1824.41C1247.31 1826.94 1247.16 1826.81 1249.44 1828.35C1251.17 1826.78 1250.59 1827.32 1251.68 1825.05C1254.74 1826.13 1253.31 1825.32 1255.71 1828.2C1257.05 1833.96 1255.67 1834.75 1256.58 1838.39C1257.61 1842.51 1261.06 1849.29 1262.56 1854.25C1266.35 1866.73 1255.92 1883.54 1251.52 1895.42C1251.26 1896.1 1249.55 1897.87 1249.12 1898.32L1248.03 1898.38C1246.37 1898.5 1247.03 1898.44 1245.1 1898.7L1244.4 1900.5L1247.25 1900.14C1244.78 1914.58 1189.55 1972.55 1173.99 1970.16L1172.78 1968.26C1167.05 1972.97 1170.34 1972.84 1162.85 1975.83C1126.88 1990.18 1084.75 1987.8 1050.14 1970.29C1039.58 1964.95 993.502 1932.02 991.778 1920.6C989.768 1918.44 988.692 1918.61 985.723 1918C972.184 1904.45 961.442 1888.64 950.063 1873.4C928.093 1843.98 900.789 1810.79 888.3 1775.82C887.617 1773.91 886.732 1772.64 885.488 1771.06C883.278 1771.54 846.655 1807.43 841.888 1811.33C799.623 1845.82 759.954 1885.37 717.412 1919.52C692.454 1939.55 665.982 1960.22 640.432 1979.27C602.365 2007.64 560.8 2027.61 515.054 2039.96C502.871 2043.33 478.458 2044.93 471.54 2048H469.144C466.402 2046.84 464.058 2046.91 460.997 2046.59C459.988 2045.48 459.308 2044.7 458.365 2043.5L457.536 2042.44C447.716 2051.21 430.807 2039.47 418.707 2038.16C409.477 2037.16 412.935 2033.95 409.4 2030.88C404.885 2030.68 398.026 2029.82 394.33 2027.47C381.346 2019.22 347.894 1993.56 338.344 1983.18L338.709 1980.37C332.492 1975.42 325.917 1970.99 320.39 1965.24C265.25 1907.84 226.634 1834.6 227.875 1754.57L231.516 1758.03L232.2 1758.62C234.359 1755.83 236.109 1742.98 230.862 1741.09L229.488 1739.94L229.103 1734.39C231.035 1722.89 232.192 1709.46 237.097 1699.6C241.018 1690.4 242.095 1678.83 243.867 1668.85C247.883 1646.25 258.751 1629.38 268.011 1609.3C290.434 1560.67 320.986 1516.54 356.22 1476.32C362.236 1469.45 368.732 1461.74 375.884 1456.2C375.78 1454.69 375.614 1453.68 375.224 1452.25L378.546 1451.54C381.269 1443.4 405.495 1422.36 413.053 1414.16L416.929 1414.92L419 1413.48L418.896 1412.18L416.591 1412.55L416.043 1411.23C416.103 1410.9 416.168 1410.57 416.223 1410.25C417.523 1402.47 435.893 1386.85 442.054 1380.21C481.208 1338.02 520.625 1296.52 562.054 1256.52C584.392 1234.96 607.3 1214.11 629.244 1192.12C639.172 1182.16 649.882 1172.03 658.362 1160.82L656.963 1159.57C650.723 1162.07 625.764 1158.2 617.639 1157.2C610.401 1161.74 605.541 1158.66 597.53 1157.94C593.776 1157.6 588.015 1156.94 584.41 1156.17C575.714 1154.27 566.864 1160.01 558.252 1157.09C549.996 1154.28 544.824 1153.05 539.038 1157.52C539.051 1157.51 521.742 1158.99 520.296 1159.08C498.261 1160.51 475.684 1162.12 453.61 1161.71C450.867 1161.64 448.063 1164.94 445.437 1164.91C438.102 1164.72 431.54 1165.32 424.18 1166.29C386.483 1171.28 347.095 1178.28 309.065 1176.11C306.122 1175.95 301.743 1168.55 298.776 1168.57L301.741 1174.67L301.205 1175.85C299.404 1175.53 299.564 1175.7 298.079 1174.98C252.754 1153.11 212.103 1075.86 235.694 1028.29L236.33 1027.03C235.426 1020.48 239.105 1015.99 243.092 1010.81C265.811 981.287 309.238 971.197 343.278 960.709C351.412 958.202 362.358 959.085 368.211 952.967C369.512 951.607 378.097 954.43 381.16 954.651C400.555 945.202 410.488 949.006 428.517 944.567C453.669 938.374 471.558 936.493 497.517 935.101C518.989 933.321 541.198 929.811 562.739 929.763C581.924 929.721 603.519 931.514 622.701 930.956C647.481 930.234 667.842 929.226 692.53 933.912C700.728 935.468 713.262 934.19 721.914 935.433C731.783 936.158 737.603 938.469 747.137 940.788C759.979 941.583 760.957 936.185 772.676 944.352C773.161 944.104 775.132 943.193 775.48 942.609C777.885 938.571 785.892 947.859 787.302 948.013C793.491 948.691 801.371 947.445 808.166 948.694C817.556 950.42 829.118 956.942 838.354 958.46C833.778 957.708 842.443 958.36 841.2 958.283C845.149 958.526 849.497 959.496 852.642 957.021C852.402 953.171 851.682 949.367 850.498 945.696C847.809 937.137 854.096 929.955 850.042 921.177C847.365 914.054 849.237 906.144 848.853 898.204C846.795 855.631 844.338 812.753 843.638 770.245C843.49 761.262 840.92 767.528 846.626 760.484C847.892 758.921 842.841 739.808 842.672 737.043C848.7 728.182 841.164 725.396 841.263 720.053C841.981 680.953 839.23 641.568 837.97 602.297L829.416 314.808C828.747 295.228 825.266 274.44 824.934 254.272C824.766 244.132 825.57 233.282 825.129 223.746C824.095 207.972 820.805 191.767 822.139 175.959C822.725 169.014 818.568 163.546 817.512 157.215C816.991 154.089 818.577 147.124 818.734 143.247C819.065 135.027 819.089 126.316 820.463 118.211C827.851 89.0272 841.604 59.2837 861.754 36.7234C871.245 26.0965 880.9 24.8607 892.202 17.7222C892.401 17.5963 894.269 12.2051 895.488 11.3412C899.204 8.70744 903.388 12.2437 907.97 11.9093C908.018 11.7575 908.841 9.06094 909.004 8.93226C914.326 4.75178 934.125 5.51377 939.399 5.51823L941.768 0ZM1099.74 1123.18L1101.51 1122.78L1104.44 1124.47C1109.64 1118.48 1143.5 1112.26 1152.84 1110.69C1153.87 1112.52 1153.88 1112.52 1155.62 1113.95L1158.6 1113.69C1158.42 1111.42 1158.59 1112.29 1157.34 1110.17C1158.98 1107.4 1161.65 1106.45 1164.58 1104.86C1167.35 1104.74 1167.93 1105.39 1170.41 1106.71L1172.72 1106.44C1175.04 1100.4 1200.99 1085.87 1208.47 1087.66C1211.42 1088.36 1217.75 1083.44 1219.1 1081.07L1217.21 1079.73C1222.84 1075.37 1225.19 1075.06 1231.07 1071.91C1243.37 1065.31 1254.2 1052.97 1266.7 1045.63C1267.28 1045.28 1270.26 1046.45 1273.83 1044.97L1272.46 1040.71C1273.28 1039.24 1295.15 1024.67 1298.73 1021.98C1303.42 1018.45 1306.01 1013.39 1310.38 1009.83C1319.16 1002.69 1328.9 996.807 1337.24 988.981C1354.86 972.448 1371.51 954.003 1386.96 935.455C1393.49 927.612 1397.08 918.331 1404.96 911.709C1411.13 906.52 1453.27 835.096 1459.98 823.113C1462.21 819.128 1466.78 806.522 1469.45 803.883C1470.4 802.952 1471.84 802.659 1472.82 801.76C1473.05 801.541 1484.11 771.449 1484.81 769.146C1488 766.733 1494.41 767.606 1493.04 762.992C1488.62 748.151 1500.84 740.071 1504.59 727.594C1509.93 709.834 1515.67 690.766 1519.66 672.606L1522.14 671.939C1522.16 671.492 1522.18 671.045 1522.21 670.599C1522.91 659.532 1527.21 649.039 1529.52 638.242C1534.72 613.936 1546.53 550.432 1529.01 531.375C1527.35 529.566 1525.98 528.951 1523.6 528.958C1521.3 528.965 1522.19 528.808 1520.55 529.282C1469.22 536.725 1408.11 605.295 1370.84 638.492C1367.31 641.636 1366.28 645.632 1362.57 648.724C1327.12 683.257 1298.13 722.131 1267.93 761.048C1250.28 781.087 1234.45 800.95 1219.06 822.92C1216.37 826.759 1204.59 846.637 1201.4 851.373C1201.31 851.508 1198.02 851.061 1197.96 851.053L1196.83 853.192C1197.4 855.036 1197.85 856.597 1198.32 858.469C1195.57 863.374 1192.32 869.404 1189.09 874.028C1187.29 876.609 1182.26 877.528 1181.58 880.457L1183.07 881.569C1183.01 884.941 1183.5 883.412 1181.31 886.229C1179 887.177 1178 887.295 1176.22 888.914C1175.74 890.939 1174.83 894.512 1174.91 896.556C1175.23 904.37 1165.41 910.622 1163.08 916.768C1151.87 946.431 1133.11 972.673 1121.57 1002.24C1118.05 1011.26 1114.24 1020.43 1110.13 1029.19L1110.77 1026.31C1106.94 1035.43 1104.66 1042.27 1103.9 1052.26C1103.86 1052.8 1099.08 1056.36 1098.48 1056.78C1097.77 1060.44 1096.9 1066.59 1095.42 1069.7L1092.38 1070.39C1093.15 1072.68 1096.46 1080.1 1094.68 1081.37C1088.98 1085.44 1092.93 1092.44 1090.39 1097.37C1088.72 1100.61 1083.88 1101.9 1082.66 1106.38C1089.87 1115.5 1079.79 1116.26 1080.83 1123.84C1084.22 1126.26 1089.15 1125.06 1093.08 1124.41C1095.31 1124.06 1097.53 1123.65 1099.74 1123.18ZM486.466 1801.33C495.735 1807.97 509.711 1801.19 519.397 1799.63C534.883 1797.13 528.687 1788.42 545.434 1787.77C550.049 1784.44 548.633 1781.64 556.173 1776.54C572.134 1765.61 586.829 1752.97 602.487 1741.63C605.177 1739.68 607.645 1734.44 610.055 1732.9C627.223 1721.91 641.756 1709.43 655.976 1694.91C662.052 1688.71 671.612 1683.03 677.885 1676.68C682.954 1672.11 687.204 1666.23 692.369 1661.78C697.337 1657.5 700.895 1652.69 705.364 1648.04C709.666 1643.58 714.948 1639.58 719.217 1635.03C722.67 1630.7 726.856 1619.7 730.33 1614.2C734.45 1607.67 738.366 1603.94 742.845 1598.11C744.483 1595.98 747.414 1587.94 749.32 1584.9C751.751 1581.02 759.282 1573.97 760.967 1570.28C761.682 1568.72 760.513 1563.57 762.823 1559.26C773.873 1551.11 773.475 1550.37 775.529 1536.4C775.796 1534.59 782.835 1535.59 783.044 1527.84C783.471 1512.05 798.285 1497.75 799.827 1481.56L797.998 1478.98C802.619 1468.67 811.408 1447.89 814.019 1436.9C820.131 1411.17 826.107 1385.29 833.419 1359.8C835.353 1353.05 837.207 1345.02 837.385 1337.77C837.413 1337.98 839.771 1336.55 841.421 1334.72C840.746 1332 840.241 1331.86 838.374 1329.65C837.882 1320.42 842.677 1305.05 840.666 1297.66C827.829 1310.52 813.332 1321.39 799.644 1333.29C768.783 1360.12 737.424 1386.96 707.556 1414.88C687.886 1433.27 670.021 1453.93 651.398 1473.39C600.592 1526.47 454.845 1674.63 454.577 1747.39C454.515 1764.14 461.359 1781.82 473.225 1793.69C475.851 1796.31 481.571 1801.49 485.352 1801.46C485.726 1801.45 486.095 1801.37 486.466 1801.33Z" fill="black"/>
<path d="M229.103 1734.39L229.488 1739.94L230.862 1741.09C230.917 1745.82 230.762 1753.62 231.516 1758.03L227.875 1754.57C228.975 1750 228.001 1741.16 229.103 1734.39Z" fill="black" fill-opacity="0.886275"/>
<path d="M1336.59 394.43C1339.6 391.653 1340.16 391.497 1343.91 389.65L1345.62 392.081C1343.81 396.129 1343.09 397.002 1338.69 397.807C1336.63 396.097 1337.47 397.107 1336.59 394.43Z" fill="black" fill-opacity="0.972549"/>
<path d="M1429.09 333.52L1429.95 335.418C1424.82 340.261 1423.37 340.672 1416.46 339.1C1421.01 336.415 1424.2 335.373 1429.09 333.52Z" fill="black" fill-opacity="0.952941"/>
</svg>
